<?xml version="1.0" encoding="UTF-8"?>
<svg width="134px" height="134px" viewBox="0 0 134 134" version="1.1" xmlns="http://www.w3.org/2000/svg" xmlns:xlink="http://www.w3.org/1999/xlink">
    <!-- Generator: Sketch 55.2 (78181) - https://sketchapp.com -->
    <title>Chart_</title>
    <desc>Created with Sketch.</desc>
    <defs>
        <path d="M67.9968682,134.152089 C30.99379,134.152089 0.996868217,104.155167 0.996868217,67.1520889 C0.996868217,30.1490106 30.99379,0.152088869 67.9968682,0.152088869 C104.999946,0.152088869 134.996868,30.1490106 134.996868,67.1520889 C134.996868,104.155167 104.999946,134.152089 67.9968682,134.152089 Z M67.9968682,105.152089 C88.9836887,105.152089 105.996868,88.1389094 105.996868,67.1520889 C105.996868,46.1652684 88.9836887,29.1520889 67.9968682,29.1520889 C47.0100477,29.1520889 29.9968682,46.1652684 29.9968682,67.1520889 C29.9968682,88.1389094 47.0100477,105.152089 67.9968682,105.152089 Z" id="path-1"></path>
    </defs>
    <g id="Page-1" stroke="none" stroke-width="1" fill="none" fill-rule="evenodd">
        <g id="Mobile" transform="translate(-22.000000, -26.000000)">
            <g id="Chart_" transform="translate(21.000000, 25.000000)">
                <g id="Speedo-Clipped">
                    <g id="Speedo">
                        <g id="Group" transform="translate(0.003132, 0.847911)">
                            <g id="Mask" fill="#1F8EFA">
                                <path d="M67.9968682,134.152089 C30.99379,134.152089 0.996868217,104.155167 0.996868217,67.1520889 C0.996868217,30.1490106 30.99379,0.152088869 67.9968682,0.152088869 C104.999946,0.152088869 134.996868,30.1490106 134.996868,67.1520889 C134.996868,104.155167 104.999946,134.152089 67.9968682,134.152089 Z M67.9968682,105.152089 C88.9836887,105.152089 105.996868,88.1389094 105.996868,67.1520889 C105.996868,46.1652684 88.9836887,29.1520889 67.9968682,29.1520889 C47.0100477,29.1520889 29.9968682,46.1652684 29.9968682,67.1520889 C29.9968682,88.1389094 47.0100477,105.152089 67.9968682,105.152089 Z" id="path-3"></path>
                            </g>
                            <g id="Group-Clipped">
                                <mask id="mask-2" fill="white">
                                    <use xlink:href="#path-1"></use>
                                </mask>
                                <g id="path-3"></g>
                                <g id="Group" mask="url(#mask-2)">
                                    <g transform="translate(-11.000000, -29.000000)">
                                        <g transform="translate(83.500000, 51.000000) scale(-1, 1) translate(-83.500000, -51.000000) ">
                                            <polygon id="Period5_" fill="#49C44E" fill-rule="nonzero" points="88.5749932 99.6520889 24.8601495 46.1579482 -7.27595761e-12 101.152089"></polygon>
                                            <polygon id="Period4_" fill="#A4C63F" fill-rule="nonzero" points="24.8601495 46.1579482 56.7458917 11.1130264 88.5749932 13.1833389 86.9968682 101.152089"></polygon>
                                            <polygon id="Period3_" fill="#FFC93A" fill-rule="nonzero" points="86.9968682 101.152089 144.836731 11.1130264 86.9968682 -4.54747351e-13"></polygon>
                                            <polygon id="Period2_" fill="#FFAB4F" fill-rule="nonzero" points="166.996868 42.1520889 166.996868 101.152089 86.9968682 101.152089 126.996868 21.9886515"></polygon>
                                            <polygon id="Period1_" fill="#EE423D" fill-rule="nonzero" points="86.9968682 101.152089 157.79642 101.152089 161.132971 73.6550186"></polygon>
                                        </g>
                                    </g>
                                </g>
                            </g>
                        </g>
                    </g>
                </g>
            </g>
        </g>
    </g>
</svg>